<mxfile host="app.diagrams.net" agent="Mozilla/5.0 (Windows NT 10.0; Win64; x64) AppleWebKit/537.36 (KHTML, like Gecko) Chrome/130.0.0.0 Safari/537.36" version="24.8.4">
  <diagram id="C5RBs43oDa-KdzZeNtuy" name="Page-1">
    <mxGraphModel grid="1" page="1" gridSize="10" guides="1" tooltips="1" connect="1" arrows="1" fold="1" pageScale="1" pageWidth="827" pageHeight="1169" math="0" shadow="0">
      <root>
        <mxCell id="WIyWlLk6GJQsqaUBKTNV-0" />
        <mxCell id="WIyWlLk6GJQsqaUBKTNV-1" parent="WIyWlLk6GJQsqaUBKTNV-0" />
        <mxCell id="eT9pzQY5szeT-8WCV92I-5" style="edgeStyle=orthogonalEdgeStyle;rounded=0;orthogonalLoop=1;jettySize=auto;html=1;entryX=0.5;entryY=0;entryDx=0;entryDy=0;" edge="1" parent="WIyWlLk6GJQsqaUBKTNV-1" source="eT9pzQY5szeT-8WCV92I-0" target="eT9pzQY5szeT-8WCV92I-1">
          <mxGeometry relative="1" as="geometry" />
        </mxCell>
        <mxCell id="eT9pzQY5szeT-8WCV92I-0" value="inicio" style="ellipse;whiteSpace=wrap;html=1;aspect=fixed;" vertex="1" parent="WIyWlLk6GJQsqaUBKTNV-1">
          <mxGeometry x="140" y="70" width="50" height="50" as="geometry" />
        </mxCell>
        <mxCell id="eT9pzQY5szeT-8WCV92I-1" value="solicito 2 numeros" style="rounded=1;whiteSpace=wrap;html=1;" vertex="1" parent="WIyWlLk6GJQsqaUBKTNV-1">
          <mxGeometry x="105" y="170" width="120" height="60" as="geometry" />
        </mxCell>
        <mxCell id="eT9pzQY5szeT-8WCV92I-7" style="edgeStyle=orthogonalEdgeStyle;rounded=0;orthogonalLoop=1;jettySize=auto;html=1;entryX=0.5;entryY=0;entryDx=0;entryDy=0;" edge="1" parent="WIyWlLk6GJQsqaUBKTNV-1" target="eT9pzQY5szeT-8WCV92I-3">
          <mxGeometry relative="1" as="geometry">
            <mxPoint x="165" y="400.9999999999998" as="sourcePoint" />
          </mxGeometry>
        </mxCell>
        <mxCell id="eT9pzQY5szeT-8WCV92I-2" value="¿son&lt;div&gt;2?&lt;/div&gt;" style="rhombus;whiteSpace=wrap;html=1;" vertex="1" parent="WIyWlLk6GJQsqaUBKTNV-1">
          <mxGeometry x="125" y="350" width="80" height="80" as="geometry" />
        </mxCell>
        <mxCell id="eT9pzQY5szeT-8WCV92I-8" style="edgeStyle=orthogonalEdgeStyle;rounded=0;orthogonalLoop=1;jettySize=auto;html=1;exitX=0.5;exitY=1;exitDx=0;exitDy=0;entryX=0.5;entryY=0;entryDx=0;entryDy=0;" edge="1" parent="WIyWlLk6GJQsqaUBKTNV-1" source="eT9pzQY5szeT-8WCV92I-22" target="eT9pzQY5szeT-8WCV92I-4">
          <mxGeometry relative="1" as="geometry" />
        </mxCell>
        <mxCell id="eT9pzQY5szeT-8WCV92I-3" value="los sumo" style="rounded=1;whiteSpace=wrap;html=1;" vertex="1" parent="WIyWlLk6GJQsqaUBKTNV-1">
          <mxGeometry x="105" y="581" width="120" height="60" as="geometry" />
        </mxCell>
        <mxCell id="eT9pzQY5szeT-8WCV92I-4" value="fin" style="ellipse;whiteSpace=wrap;html=1;aspect=fixed;" vertex="1" parent="WIyWlLk6GJQsqaUBKTNV-1">
          <mxGeometry x="140" y="770" width="50" height="50" as="geometry" />
        </mxCell>
        <mxCell id="eT9pzQY5szeT-8WCV92I-10" value="¿son&lt;div&gt;numeros?&lt;/div&gt;" style="rhombus;whiteSpace=wrap;html=1;" vertex="1" parent="WIyWlLk6GJQsqaUBKTNV-1">
          <mxGeometry x="125" y="461" width="80" height="80" as="geometry" />
        </mxCell>
        <mxCell id="eT9pzQY5szeT-8WCV92I-11" value="Si" style="text;html=1;align=center;verticalAlign=middle;whiteSpace=wrap;rounded=0;" vertex="1" parent="WIyWlLk6GJQsqaUBKTNV-1">
          <mxGeometry x="160" y="421" width="60" height="30" as="geometry" />
        </mxCell>
        <mxCell id="eT9pzQY5szeT-8WCV92I-12" value="Si" style="text;html=1;align=center;verticalAlign=middle;whiteSpace=wrap;rounded=0;" vertex="1" parent="WIyWlLk6GJQsqaUBKTNV-1">
          <mxGeometry x="160" y="541" width="60" height="30" as="geometry" />
        </mxCell>
        <mxCell id="eT9pzQY5szeT-8WCV92I-13" style="edgeStyle=orthogonalEdgeStyle;rounded=0;orthogonalLoop=1;jettySize=auto;html=1;entryX=1;entryY=0.369;entryDx=0;entryDy=0;entryPerimeter=0;" edge="1" parent="WIyWlLk6GJQsqaUBKTNV-1" source="eT9pzQY5szeT-8WCV92I-10" target="eT9pzQY5szeT-8WCV92I-1">
          <mxGeometry relative="1" as="geometry">
            <Array as="points">
              <mxPoint x="320" y="501" />
              <mxPoint x="320" y="192" />
            </Array>
          </mxGeometry>
        </mxCell>
        <mxCell id="eT9pzQY5szeT-8WCV92I-14" style="edgeStyle=orthogonalEdgeStyle;rounded=0;orthogonalLoop=1;jettySize=auto;html=1;entryX=1.007;entryY=0.633;entryDx=0;entryDy=0;entryPerimeter=0;" edge="1" parent="WIyWlLk6GJQsqaUBKTNV-1" source="eT9pzQY5szeT-8WCV92I-2" target="eT9pzQY5szeT-8WCV92I-1">
          <mxGeometry relative="1" as="geometry">
            <Array as="points">
              <mxPoint x="290" y="390" />
              <mxPoint x="290" y="208" />
            </Array>
          </mxGeometry>
        </mxCell>
        <mxCell id="eT9pzQY5szeT-8WCV92I-15" value="No" style="text;html=1;align=center;verticalAlign=middle;whiteSpace=wrap;rounded=0;" vertex="1" parent="WIyWlLk6GJQsqaUBKTNV-1">
          <mxGeometry x="225" y="360" width="60" height="30" as="geometry" />
        </mxCell>
        <mxCell id="eT9pzQY5szeT-8WCV92I-16" value="No" style="text;html=1;align=center;verticalAlign=middle;whiteSpace=wrap;rounded=0;" vertex="1" parent="WIyWlLk6GJQsqaUBKTNV-1">
          <mxGeometry x="220" y="470" width="60" height="30" as="geometry" />
        </mxCell>
        <mxCell id="eT9pzQY5szeT-8WCV92I-18" value="" style="edgeStyle=orthogonalEdgeStyle;rounded=0;orthogonalLoop=1;jettySize=auto;html=1;entryX=0.5;entryY=0;entryDx=0;entryDy=0;" edge="1" parent="WIyWlLk6GJQsqaUBKTNV-1" source="eT9pzQY5szeT-8WCV92I-1" target="eT9pzQY5szeT-8WCV92I-17">
          <mxGeometry relative="1" as="geometry">
            <mxPoint x="165" y="230" as="sourcePoint" />
            <mxPoint x="165" y="360" as="targetPoint" />
          </mxGeometry>
        </mxCell>
        <mxCell id="eT9pzQY5szeT-8WCV92I-17" value="Leo numeros" style="shape=parallelogram;perimeter=parallelogramPerimeter;whiteSpace=wrap;html=1;fixedSize=1;" vertex="1" parent="WIyWlLk6GJQsqaUBKTNV-1">
          <mxGeometry x="105" y="260" width="120" height="60" as="geometry" />
        </mxCell>
        <mxCell id="eT9pzQY5szeT-8WCV92I-20" value="" style="edgeStyle=orthogonalEdgeStyle;rounded=0;orthogonalLoop=1;jettySize=auto;html=1;entryX=0.5;entryY=0;entryDx=0;entryDy=0;" edge="1" parent="WIyWlLk6GJQsqaUBKTNV-1" source="eT9pzQY5szeT-8WCV92I-17" target="eT9pzQY5szeT-8WCV92I-2">
          <mxGeometry relative="1" as="geometry">
            <mxPoint x="165" y="320" as="sourcePoint" />
            <mxPoint x="165" y="370.0000000000002" as="targetPoint" />
          </mxGeometry>
        </mxCell>
        <mxCell id="eT9pzQY5szeT-8WCV92I-23" value="" style="edgeStyle=orthogonalEdgeStyle;rounded=0;orthogonalLoop=1;jettySize=auto;html=1;exitX=0.5;exitY=1;exitDx=0;exitDy=0;entryX=0.5;entryY=0;entryDx=0;entryDy=0;" edge="1" parent="WIyWlLk6GJQsqaUBKTNV-1" source="eT9pzQY5szeT-8WCV92I-3" target="eT9pzQY5szeT-8WCV92I-22">
          <mxGeometry relative="1" as="geometry">
            <mxPoint x="165" y="641" as="sourcePoint" />
            <mxPoint x="165" y="770" as="targetPoint" />
          </mxGeometry>
        </mxCell>
        <mxCell id="eT9pzQY5szeT-8WCV92I-22" value="imprimo" style="rounded=1;whiteSpace=wrap;html=1;" vertex="1" parent="WIyWlLk6GJQsqaUBKTNV-1">
          <mxGeometry x="105" y="670" width="120" height="60" as="geometry" />
        </mxCell>
      </root>
    </mxGraphModel>
  </diagram>
</mxfile>
